<svg aria-hidden="true" style="position: absolute; width: 0; height: 0; overflow: hidden;" version="1.1" xmlns="http://www.w3.org/2000/svg" xmlns:xlink="http://www.w3.org/1999/xlink">
<defs>
<symbol id="icon-github" viewBox="0 0 33 32">
<path fill="#fff" style="fill: var(--color1, #fff)" d="M16.405 0c-9.064 0-16.405 7.341-16.405 16.405 0 7.259 4.696 13.389 11.217 15.563 0.82 0.144 1.127-0.348 1.127-0.779 0-0.389-0.020-1.681-0.020-3.055-4.121 0.759-5.188-1.005-5.516-1.928-0.184-0.472-0.984-1.928-1.681-2.317-0.573-0.307-1.395-1.067-0.021-1.087 1.293-0.020 2.215 1.189 2.523 1.681 1.476 2.48 3.835 1.784 4.779 1.353 0.143-1.067 0.573-1.784 1.045-2.195-3.651-0.409-7.464-1.824-7.464-8.099 0-1.784 0.636-3.261 1.68-4.409-0.163-0.411-0.737-2.092 0.165-4.347 0 0 1.373-0.431 4.511 1.68 1.313-0.368 2.707-0.553 4.101-0.553s2.789 0.185 4.101 0.555c3.137-2.133 4.512-1.681 4.512-1.681 0.901 2.255 0.328 3.936 0.164 4.347 1.045 1.148 1.68 2.604 1.68 4.409 0 6.295-3.833 7.689-7.484 8.099 0.595 0.513 1.107 1.497 1.107 3.036 0 2.193-0.020 3.957-0.020 4.511 0 0.431 0.308 0.944 1.128 0.779 6.551-2.26 11.173-8.371 11.176-15.562v-0c0-9.064-7.341-16.405-16.404-16.405z"></path>
</symbol>
<symbol id="icon-inkedin" viewBox="0 0 33 32">
<path fill="#fff" style="fill: var(--color1, #fff)" d="M7.401 4.405c-1.52 0-2.756 1.235-2.756 2.752 0 1.52 1.237 2.755 2.756 2.755 1.484-0.048 2.669-1.262 2.669-2.753s-1.185-2.706-2.665-2.753l-0.004-0zM5.023 11.997v15.271h4.749l0.001-15.271h-4.751zM12.753 11.997v15.269l4.739 0.003 0.003-7.557c0-1.939 0.337-3.921 2.843-3.921 2.468 0 2.468 2.34 2.468 4.048v7.428l4.745-0.001v-8.373c0-3.779-0.689-7.276-5.693-7.276-2.351 0-3.888 1.329-4.491 2.467h-0.067v-2.087h-4.547zM29.913 32h-27.271c-1.301 0-2.36-1.036-2.36-2.309v-27.383c0-1.273 1.059-2.308 2.36-2.308h27.271c1.307 0 2.369 1.035 2.369 2.307v27.384c0 1.273-1.063 2.309-2.369 2.309z"></path>
</symbol>
<symbol id="icon-circle" viewBox="0 0 32 32">
<path fill="#fff" style="fill: var(--color1, #fff)" d="M7.401 4.405c-1.52 0-2.756 1.235-2.756 2.752 0 1.52 1.237 2.755 2.756 2.755 1.484-0.048 2.669-1.262 2.669-2.753s-1.185-2.706-2.665-2.753l-0.004-0zM5.023 11.997v15.271h4.749l0.001-15.271h-4.751zM12.753 11.997v15.269l4.739 0.003 0.003-7.557c0-1.939 0.337-3.921 2.843-3.921 2.468 0 2.468 2.34 2.468 4.048v7.428l4.745-0.001v-8.373c0-3.779-0.689-7.276-5.693-7.276-2.351 0-3.888 1.329-4.491 2.467h-0.067v-2.087h-4.547zM29.913 32h-27.271c-1.301 0-2.36-1.036-2.36-2.309v-27.383c0-1.273 1.059-2.308 2.36-2.308h27.271c1.307 0 2.369 1.035 2.369 2.307v27.384c0 1.273-1.063 2.309-2.369 2.309z"></path>
</symbol>
<symbol id="icon-rings" viewBox="0 0 131 32">
<path fill="#fff" style="fill: var(--color1, #fff)" d="M7.401 4.405c-1.52 0-2.756 1.235-2.756 2.752 0 1.52 1.237 2.755 2.756 2.755 1.484-0.048 2.669-1.262 2.669-2.753s-1.185-2.706-2.665-2.753l-0.004-0zM5.023 11.997v15.271h4.749l0.001-15.271h-4.751zM12.753 11.997v15.269l4.739 0.003 0.003-7.557c0-1.939 0.337-3.921 2.843-3.921 2.468 0 2.468 2.34 2.468 4.048v7.428l4.745-0.001v-8.373c0-3.779-0.689-7.276-5.693-7.276-2.351 0-3.888 1.329-4.491 2.467h-0.067v-2.087h-4.547zM29.913 32h-27.271c-1.301 0-2.36-1.036-2.36-2.309v-27.383c0-1.273 1.059-2.308 2.36-2.308h27.271c1.307 0 2.369 1.035 2.369 2.307v27.384c0 1.273-1.063 2.309-2.369 2.309z"></path>
</symbol>
</defs>
</svg>
